HIERARCHY
ROOT Hips
{
	OFFSET 0.000000 0.000000 0.000000
	CHANNELS 6 Xposition Yposition Zposition Xrotation Yrotation Zrotation
	JOINT LeftUpLeg_virtual
	{
		OFFSET 0.000000 0.000000 0.000000
		CHANNELS 3 Xrotation Yrotation Zrotation
		JOINT LeftUpLeg
		{
			OFFSET 11.394100 -6.187798 -0.413800
			CHANNELS 3 Xrotation Yrotation Zrotation
			JOINT LeftLeg
			{
				OFFSET 0.430247 -32.302673 3.732800
				CHANNELS 3 Xrotation Yrotation Zrotation
				JOINT LeftFoot
				{
					OFFSET -0.430247 -48.264931 -6.423300
					CHANNELS 3 Xrotation Yrotation Zrotation
					JOINT LeftToeBase
					{
						OFFSET 4.230900 -16.068199 23.438400
						CHANNELS 3 Xrotation Yrotation Zrotation
						JOINT LeftToe_End
						{
							OFFSET 4.510700 0.695400 19.974600
							CHANNELS 3 Xrotation Yrotation Zrotation
							End Site
							{
								OFFSET 0 0 0
							}
						}
					}
				}
			}
		}
	}
	JOINT RightUpLeg_virtual
	{
		OFFSET 0.000000 0.000000 0.000000
		CHANNELS 3 Xrotation Yrotation Zrotation
		JOINT RightUpLeg
		{
			OFFSET -11.333700 -6.187798 -0.413800
			CHANNELS 3 Xrotation Yrotation Zrotation
			JOINT RightLeg
			{
				OFFSET -0.430392 -32.302628 3.733000
				CHANNELS 3 Xrotation Yrotation Zrotation
				JOINT RightFoot
				{
					OFFSET 0.430392 -48.264973 -6.423500
					CHANNELS 3 Xrotation Yrotation Zrotation
					JOINT RightToeBase
					{
						OFFSET -4.230900 -16.068199 23.438400
						CHANNELS 3 Xrotation Yrotation Zrotation
						JOINT RightToe_End
						{
							OFFSET -4.510700 0.695400 19.974600
							CHANNELS 3 Xrotation Yrotation Zrotation
							End Site
							{
								OFFSET 0 0 0
							}
						}
					}
				}
			}
		}
	}
	JOINT Spine_virtual
	{
		OFFSET 0.000000 0.000000 0.000000
		CHANNELS 3 Xrotation Yrotation Zrotation
		JOINT Spine
		{
			OFFSET -0.002400 12.777504 0.315300
			CHANNELS 3 Xrotation Yrotation Zrotation
			JOINT Spine1
			{
				OFFSET -0.002067 5.816869 0.032633
				CHANNELS 3 Xrotation Yrotation Zrotation
				JOINT Spine1_split
				{
					OFFSET -0.002067 5.816869 0.032633
					CHANNELS 3 Xrotation Yrotation Zrotation
					JOINT Spine2
					{
						OFFSET -0.002067 5.816869 0.032633
						CHANNELS 3 Xrotation Yrotation Zrotation
						JOINT Neck_virtual
						{
							OFFSET 0.000000 0.000000 0.000000
							CHANNELS 3 Xrotation Yrotation Zrotation
							JOINT Neck
							{
								OFFSET -0.003700 21.199493 -0.826900
								CHANNELS 3 Xrotation Yrotation Zrotation
								JOINT Head
								{
									OFFSET 0.000000 20.442200 4.834800
									CHANNELS 3 Xrotation Yrotation Zrotation
									JOINT HeadTop_End
									{
										OFFSET 0.000000 34.668396 4.968400
										CHANNELS 3 Xrotation Yrotation Zrotation
										End Site
										{
											OFFSET 0 0 0
										}
									}
								}
							}
						}
						JOINT LeftShoulder_virtual
						{
							OFFSET 0.000000 0.000000 0.000000
							CHANNELS 3 Xrotation Yrotation Zrotation
							JOINT LeftShoulder
							{
								OFFSET 3.288150 8.794197 -1.372250
								CHANNELS 3 Xrotation Yrotation Zrotation
								JOINT LeftShoulder_split
								{
									OFFSET 3.288150 8.794197 -1.372250
									CHANNELS 3 Xrotation Yrotation Zrotation
									JOINT LeftArm
									{
										OFFSET 11.953299 -2.279007 -0.146200
										CHANNELS 3 Xrotation Yrotation Zrotation
										JOINT LeftForeArm
										{
											OFFSET 18.448900 0.000000 0.000000
											CHANNELS 3 Xrotation Yrotation Zrotation
											JOINT LeftHand
											{
												OFFSET 29.527798 0.000000 0.000000
												CHANNELS 3 Xrotation Yrotation Zrotation
												End Site
												{
													OFFSET 0 0 0
												}
											}
										}
									}
								}
							}
						}
						JOINT RightShoulder_virtual
						{
							OFFSET 0.000000 0.000000 0.000000
							CHANNELS 3 Xrotation Yrotation Zrotation
							JOINT RightShoulder
							{
								OFFSET -3.249400 8.794197 -1.372250
								CHANNELS 3 Xrotation Yrotation Zrotation
								JOINT RightShoulder_split
								{
									OFFSET -3.249400 8.794197 -1.372250
									CHANNELS 3 Xrotation Yrotation Zrotation
									JOINT RightArm
									{
										OFFSET -11.953299 -2.279007 -0.146200
										CHANNELS 3 Xrotation Yrotation Zrotation
										JOINT RightForeArm
										{
											OFFSET -18.448900 0.000000 0.000000
											CHANNELS 3 Xrotation Yrotation Zrotation
											JOINT RightHand
											{
												OFFSET -29.527802 0.000000 0.000000
												CHANNELS 3 Xrotation Yrotation Zrotation
												End Site
												{
													OFFSET 0 0 0
												}
											}
										}
									}
								}
							}
						}
					}
				}
			}
		}
	}
}
MOTION
Frames: 4
Frame Time: 0.03333333
-34.880871 98.672409 -34.142849 0.000000 0.000000 0.000000 4.502491 -2.215127 -0.239310 -50.154291 2.225111 9.708193 38.706047 12.828740 1.701440 22.254723 7.469658 -4.916163 -3.975546 0.071445 -0.161464 0.000000 0.000000 0.000000 4.868951 -1.892602 -0.208055 -6.638764 -12.496721 -5.374706 22.121098 -8.264551 -3.423772 -7.177967 -4.451733 18.436431 -15.588457 0.459801 -1.678870 0.000000 0.000000 0.000000 4.052408 -0.948570 -1.147890 2.514756 1.821273 -3.823589 2.108400 2.367720 -0.835149 0.832704 0.332408 0.169820 0.000000 0.000000 0.000000 2.220444 2.408099 -1.248806 0.976234 0.577260 1.054038 -1.487157 11.137019 3.386486 0.000000 0.000000 0.000000 1.603169 2.348120 -1.437373 0.510398 -2.860055 -11.944051 -1.079016 0.124041 2.005662 -11.446588 23.003394 -36.360468 -0.710111 -63.019055 0.103826 0.000000 0.000000 0.000000 1.846340 2.746843 -0.573525 1.026510 -3.005428 10.051615 2.269576 1.899345 -2.715126 -15.265404 -16.020147 46.793452 0.359453 15.487317 -0.055256 0.000000 0.000000 0.000000 
-33.811546 99.921440 -34.533268 0.000000 0.000000 0.000000 4.755397 -2.662404 -0.086767 -44.837036 0.502420 12.600278 42.717468 12.349493 0.839535 19.752659 10.458419 -3.456910 -1.259830 0.573250 -3.862936 0.000000 0.000000 0.000000 5.440863 -1.843835 -0.191839 -8.683038 -13.148591 -7.816131 21.723896 -6.937341 -2.945949 -3.877439 -2.073455 18.176293 -17.586863 0.975496 -3.297777 0.000000 0.000000 0.000000 4.378395 -0.741497 -1.057128 2.361275 2.546311 -3.886656 1.585637 3.306136 -1.286566 0.634914 -0.013055 0.351900 0.000000 0.000000 0.000000 1.786045 3.291706 -1.589865 0.467439 0.312153 1.784433 -1.956296 9.177047 3.652981 0.000000 0.000000 0.000000 1.160296 3.278441 -1.931864 0.785120 -2.954203 -12.410812 -1.441739 -0.309981 2.153439 2.579162 29.110939 -43.654823 -0.317986 -64.877037 0.265585 0.000000 0.000000 0.000000 1.437522 3.660039 -1.025268 1.010593 -2.850123 9.435593 2.857621 1.633566 -2.684478 -17.777497 -16.142105 44.547682 0.327234 16.768312 -0.353733 0.000000 0.000000 0.000000 
-32.598473 101.074020 -34.891651 0.000000 0.000000 0.000000 5.323242 -2.905224 -0.377245 -38.905345 -0.685986 16.192551 42.726989 12.863687 0.163878 18.205669 14.252597 -1.385052 2.642880 0.946894 -8.111347 0.000000 0.000000 0.000000 6.263752 -1.459376 -0.482203 -8.938356 -12.918634 -9.632943 19.233748 -5.706492 -2.598145 -1.907979 -0.756942 17.356382 -17.993882 1.107823 -4.096954 0.000000 0.000000 0.000000 5.063083 -0.558647 -1.272295 1.972473 3.061495 -3.785970 0.990831 4.087055 -1.573714 0.699110 -0.107488 0.332483 0.000000 0.000000 0.000000 1.164104 4.010827 -1.794947 -0.106253 0.103888 2.311186 -1.942261 7.097630 3.872188 0.000000 0.000000 0.000000 0.606280 4.025706 -2.224403 1.019297 -2.895560 -11.994876 -2.014033 -1.095224 2.037196 14.906495 32.868499 -50.849987 0.176281 -63.742051 0.553316 0.000000 0.000000 0.000000 0.965351 4.406096 -1.328279 1.082949 -2.870706 8.922205 2.986734 1.555280 -2.419959 -19.556768 -16.957685 42.566316 0.162522 17.795481 -0.514294 0.000000 0.000000 0.000000 
-31.238792 101.911179 -35.254314 0.000000 0.000000 0.000000 6.198195 -2.234502 -1.083763 -33.218564 -1.023035 20.153136 39.321833 13.677339 -0.020382 17.427342 17.316606 -0.016531 4.891618 1.155228 -11.540504 0.000000 0.000000 0.000000 7.064410 -0.154090 -1.144764 -7.577456 -11.955732 -10.574502 15.310374 -4.718826 -2.409693 -0.949387 -0.489692 17.168490 -17.766521 0.912078 -4.407093 0.000000 0.000000 0.000000 5.982587 0.313529 -1.728095 1.456684 3.325581 -3.541433 0.386496 4.592695 -1.697756 1.027119 -0.037182 0.496823 0.000000 0.000000 0.000000 0.449932 4.462336 -1.863293 -0.659718 -0.084416 2.540230 -1.487301 5.034993 4.058574 0.000000 0.000000 0.000000 0.006391 4.474664 -2.295488 1.208715 -2.756751 -10.879720 -2.773556 -1.615960 1.424731 23.233191 35.195463 -56.197577 0.543271 -60.023648 0.801732 0.000000 0.000000 0.000000 0.483996 4.878890 -1.463097 1.209319 -2.977928 8.486255 2.691511 1.617639 -1.756801 -20.592136 -18.193309 40.606062 -0.058569 18.814946 -0.515364 0.000000 0.000000 0.000000 
